<svg xmlns="http://www.w3.org/2000/svg" width="1200" height="630" viewBox="0 0 1200 630">
  <rect width="1200" height="630" fill="#081316"/>
  <path d="M0 500L1200 350v280H0z" fill="#10272d"/>
  <g transform="translate(735 105)">
    <rect x="0" y="190" width="370" height="22" fill="#e5c64f"/>
    <path d="M20 40h90v150H20zm125-40h100v190H145zm135 75h70v115h-70z" fill="#4f9fbe"/>
    <g fill="#dff2ec"><path d="M42 66h20v20H42zm0 42h20v20H42zm0 42h20v20H42zM172 30h22v22h-22zm0 45h22v22h-22zm0 45h22v22h-22zM300 103h18v18h-18zm0 38h18v18h-18z"/></g>
  </g>
  <text x="86" y="220" fill="#f1cf5c" font-family="sans-serif" font-size="28" font-weight="800" letter-spacing="6">TASKTOPIA</text>
  <text x="82" y="306" fill="#f1f2e8" font-family="sans-serif" font-size="66" font-weight="900">Цифровая страна</text>
  <text x="86" y="365" fill="#9bb0b2" font-family="sans-serif" font-size="28">Районы растут. Здания строятся. Дела движутся.</text>
</svg>
